<svg width="5" height="59" viewBox="0 0 5 59" fill="none" xmlns="http://www.w3.org/2000/svg">
<path d="M5 2.63158C5 4.08523 3.88098 5.26316 2.50002 5.26316C1.11906 5.26316 0 4.08523 0 2.63158C0 1.17793 1.11906 0 2.50002 0C3.88098 0 5 1.17793 5 2.63158Z" fill="#414042"/>
<path d="M5 37.6316C5 39.0852 3.88098 40.2632 2.50002 40.2632C1.11906 40.2632 0 39.0852 0 37.6316C0 36.1779 1.11906 35 2.50002 35C3.88098 35 5 36.1779 5 37.6316Z" fill="#414042"/>
<path d="M3 2.1579H2V59H3V2.1579Z" fill="#414042"/>
</svg>
