<svg width="15" height="17" viewBox="0 0 15 17" fill="none" xmlns="http://www.w3.org/2000/svg">
<path d="M14.9365 13.2681L12.2047 7.93298C12.4968 7.23397 12.6429 6.50412 12.6429 5.74343C12.6429 4.75659 12.4116 3.84684 11.949 3.01419C11.4864 2.18154 10.8607 1.52365 10.0718 1.04051C9.28296 0.557367 8.42592 0.315796 7.50071 0.315796C6.93584 0.315796 6.39289 0.408312 5.87185 0.593345C5.35081 0.778378 4.8809 1.03794 4.46212 1.37203C4.04334 1.70611 3.67325 2.09417 3.35186 2.53619C3.03047 2.97821 2.78456 3.47677 2.61413 4.03187C2.44369 4.58697 2.35848 5.15749 2.35848 5.74343C2.35848 6.0107 2.37552 6.27283 2.40961 6.52982C2.44369 6.78681 2.49482 7.03352 2.563 7.26995C2.63117 7.50638 2.71395 7.74281 2.81134 7.97924L0.0649271 13.2681C-0.0324636 13.4531 -0.0202897 13.6305 0.101449 13.8001C0.223187 13.9697 0.381447 14.0288 0.576228 13.9774L2.92821 13.4223L3.73169 15.7815C3.79986 15.9768 3.93621 16.0847 4.14073 16.1053H4.16994C4.35499 16.1053 4.49133 16.0179 4.57899 15.8431L6.9748 11.1402C7.1501 11.1608 7.3254 11.1711 7.50071 11.1711C7.5494 11.1711 7.60053 11.1685 7.6541 11.1633C7.70766 11.1582 7.76123 11.1556 7.81479 11.1556C7.86836 11.1556 7.92436 11.1505 7.98279 11.1402L10.4224 15.8431C10.5101 16.0179 10.6464 16.1053 10.8315 16.1053H10.8753C11.0701 16.0847 11.2016 15.9768 11.2697 15.7815L12.0732 13.4223L14.4252 13.9774C14.5128 14.0082 14.6005 14.0057 14.6881 13.9697C14.7758 13.9337 14.844 13.8797 14.8927 13.8078C15.0193 13.633 15.0339 13.4531 14.9365 13.2681ZM4.2576 14.3937L3.67325 12.6667C3.64403 12.5948 3.60021 12.5305 3.54177 12.474C3.48334 12.4175 3.4176 12.3789 3.34456 12.3584C3.27152 12.3378 3.19604 12.3378 3.11813 12.3584L1.3797 12.7747L3.36647 8.96608C4.04821 9.93237 4.92959 10.5903 6.01063 10.9398L4.2576 14.3937ZM3.29343 5.74343C3.29343 4.52015 3.7049 3.4742 4.52786 2.60558C5.35081 1.73695 6.34176 1.30264 7.50071 1.30264C8.26035 1.30264 8.96157 1.50052 9.60435 1.89629C10.2471 2.29205 10.756 2.83173 11.1309 3.51532C11.5059 4.19892 11.6934 4.94162 11.6934 5.74343C11.6934 6.14433 11.6447 6.53753 11.5473 6.92301C11.4499 7.3085 11.3111 7.66314 11.1309 7.98695C10.9508 8.31076 10.7292 8.60887 10.4663 8.88128C10.2033 9.15369 9.91843 9.38498 9.61165 9.57515C9.30487 9.76532 8.97131 9.91438 8.61096 10.0223C8.25061 10.1302 7.88053 10.1842 7.50071 10.1842C6.74106 10.1842 6.03741 9.98376 5.38976 9.58286C4.74212 9.18196 4.23081 8.64228 3.85586 7.96382C3.48091 7.28537 3.29343 6.54524 3.29343 5.74343ZM11.8833 12.3584C11.7664 12.3275 11.6569 12.3429 11.5546 12.4046C11.4523 12.4663 11.3769 12.5537 11.3282 12.6667L10.7438 14.4091L8.94696 10.9552C9.49235 10.7804 9.99634 10.5209 10.4589 10.1765C10.9216 9.83214 11.3184 9.41839 11.6495 8.93524L13.6217 12.7747L11.8833 12.3584Z" fill="#414042"/>
</svg>
