<svg width="22" height="16" viewBox="0 0 22 16" fill="none" xmlns="http://www.w3.org/2000/svg">
<path d="M11.0042 15.4495C10.913 15.4495 10.8219 15.4495 10.7224 15.4407C9.80266 15.3792 7.4991 15.0891 5.89156 13.8323C4.95522 13.094 4.40002 11.8723 4.40002 10.5452V6.42307H4.81434V10.5452C4.81434 11.7317 5.31152 12.8215 6.14014 13.4719C7.70624 14.7024 10.0678 14.9485 10.7473 15.0012C10.9213 15.01 11.087 15.01 11.2528 15.0012C11.9405 14.9573 14.3104 14.7024 15.8765 13.4631C16.6968 12.8128 17.194 11.7317 17.194 10.5627V6.42307H17.6083V10.5627C17.6083 11.8723 17.0531 13.0852 16.1251 13.8147C14.5175 15.0891 12.2057 15.3704 11.2859 15.4407C11.1865 15.4495 11.0953 15.4495 11.0042 15.4495Z" fill="#414042"/>
<path d="M2.61851 12.7597H0.248657L0.994414 7.59174L1.86446 7.60053L2.61851 12.7597ZM0.729248 12.3203H2.12963L1.50816 8.03999H1.34242L0.729248 12.3203Z" fill="#414042"/>
<path d="M1.48326 8.03117C0.977802 8.03117 0.563477 7.59173 0.563477 7.05559C0.563477 6.51946 0.977802 6.07999 1.48326 6.07999C1.98872 6.07999 2.40302 6.51946 2.40302 7.05559C2.40302 7.59173 1.98872 8.03117 1.48326 8.03117ZM1.48326 6.51944C1.20153 6.51944 0.977789 6.75676 0.977789 7.05559C0.977789 7.35442 1.20153 7.59171 1.48326 7.59171C1.765 7.59171 1.98871 7.35442 1.98871 7.05559C1.98871 6.75676 1.765 6.51944 1.48326 6.51944Z" fill="#414042"/>
<path d="M1.69044 5.01703H1.27612V6.29146H1.69044V5.01703Z" fill="#414042"/>
<path d="M11.1782 9.43759L0 4.62118L11.0041 0.112366L22 4.61238L11.1782 9.43759ZM1.11865 4.62995L11.1699 8.963L20.8896 4.62995L11.0041 0.578187L1.11865 4.62995Z" fill="#414042"/>
</svg>
