<svg width="11" height="11" viewBox="0 0 11 11" fill="none" xmlns="http://www.w3.org/2000/svg">
<path d="M8.81464 4.14238V1.63114C8.81464 1.30993 8.5713 1.04712 8.27388 1.04712H7.73312C7.43571 1.04712 7.19237 1.30993 7.19237 1.63114V2.56555L5.39165 0.813519C5.18616 0.614956 4.87252 0.614956 4.66703 0.813519L0.146309 5.21112C-0.0375482 5.38633 0.0760107 5.71921 0.324759 5.71921H1.24404V9.80729C1.24404 10.1285 1.48739 10.3913 1.7848 10.3913H3.94783V7.47125C3.94783 7.15004 4.19117 6.88724 4.48858 6.88724H5.5701C5.86751 6.88724 6.11085 7.15004 6.11085 7.47125V10.3913H8.27388C8.5713 10.3913 8.81464 10.1285 8.81464 9.80729V5.71921H9.73392C9.98267 5.71921 10.1016 5.38633 9.91237 5.21112L8.81464 4.14238ZM3.94783 4.55119C3.94783 3.90878 4.43451 3.38317 5.02934 3.38317C5.62417 3.38317 6.11085 3.90878 6.11085 4.55119H3.94783Z" fill="#414042"/>
</svg>
