<svg width="17" height="17" viewBox="0 0 17 17" fill="none" xmlns="http://www.w3.org/2000/svg">
<path d="M16.5833 16.6956H0L0.0553251 16.4717C0.179804 15.9518 1.26553 11.3447 1.59748 10.7671C1.81186 10.3988 2.93217 10.0449 4.61954 9.55392C5.0483 9.43116 5.4494 9.30839 5.75368 9.2073C6.16861 9.0701 6.25851 9.01234 6.27235 8.9979C6.30692 8.94735 6.38299 8.78848 6.42449 8.31189L6.77026 8.34078C6.73568 8.76682 6.66653 9.04845 6.55588 9.20009L6.52822 9.23619C6.45906 9.31562 6.32767 9.39505 5.85742 9.54669C5.54622 9.64778 5.14512 9.77055 4.70945 9.89331C3.71362 10.1822 2.04698 10.6732 1.88793 10.9476C1.66663 11.3303 0.91976 14.2909 0.435676 16.3273H16.1407C15.6567 14.2909 14.9098 11.3375 14.6885 10.9476C14.5294 10.6732 12.8628 10.1894 11.8739 9.89331C11.4866 9.77777 11.1201 9.67667 10.8296 9.57558C10.4286 9.4456 10.2142 9.35895 10.1104 9.28674L10.0551 9.23619C9.93755 9.09899 9.86148 8.84626 9.81999 8.43466L10.1658 8.39854C10.2073 8.84625 10.2902 8.96901 10.311 8.99067C10.3456 9.01956 10.477 9.08456 10.9334 9.22898C11.2238 9.32285 11.5904 9.43117 11.9707 9.53948C13.6581 10.0305 14.7784 10.3843 14.9859 10.7526C15.3247 11.3303 16.4104 15.9301 16.528 16.4573L16.5833 16.6956Z" fill="#414042"/>
<path d="M5.8574 9.56129L5.75366 9.21467C6.16859 9.07747 6.25849 9.0197 6.27232 9.00526L6.55586 9.20745L6.5282 9.24356C6.46596 9.323 6.32765 9.40243 5.8574 9.56129Z" fill="#414042"/>
<path d="M8.28476 9.21489C7.71077 9.21489 7.16445 9.0127 6.7426 8.64442C6.0718 8.05951 5.6707 7.20744 5.44941 6.60086C5.3111 6.21815 5.24194 5.81376 5.24194 5.40216V3.51747H11.3345V5.40216C11.3345 5.81376 11.2653 6.21815 11.1201 6.60086C10.8988 7.20744 10.4977 8.05951 9.82691 8.64442C9.40506 9.0127 8.85874 9.21489 8.28476 9.21489ZM5.58772 3.87853V5.40216C5.58772 5.77044 5.64996 6.13148 5.77444 6.4781C5.9819 7.04856 6.35534 7.83568 6.97081 8.37004C7.69003 8.99827 8.89332 8.99827 9.60561 8.37004C10.2211 7.83568 10.5945 7.04134 10.802 6.4781C10.9265 6.13871 10.9887 5.77766 10.9887 5.40216V3.87853H5.58772Z" fill="#414042"/>
<path d="M11.3622 3.87839H5.21436V3.69786C5.21436 1.9287 6.59054 0.484474 8.29175 0.484474C9.98604 0.484474 11.3691 1.92148 11.3691 3.69786V3.87839H11.3622ZM5.56013 3.51734H11.0095C10.9196 2.02979 9.73017 0.845528 8.28483 0.845528C6.83949 0.852749 5.65003 2.02979 5.56013 3.51734Z" fill="#414042"/>
</svg>
