<svg width="13" height="13" viewBox="0 0 13 13" fill="none" xmlns="http://www.w3.org/2000/svg">
<path d="M6.05554 0.91304C2.74179 0.91304 0.055542 3.59929 0.055542 6.91304C0.055542 10.2268 2.74179 12.913 6.05554 12.913C9.36929 12.913 12.0555 10.2268 12.0555 6.91304C12.0555 3.59929 9.36929 0.91304 6.05554 0.91304ZM4.58679 9.39992H3.37179V5.48991H4.58679V9.39992ZM3.97179 5.00991C3.58804 5.00991 3.33992 4.73804 3.33992 4.40179C3.33992 4.05867 3.59554 3.79492 3.98742 3.79492C4.37929 3.79492 4.61929 4.05867 4.62679 4.40179C4.62679 4.73804 4.37929 5.00991 3.97179 5.00991ZM9.02429 9.39992H7.80929V7.23304C7.80929 6.72867 7.63304 6.38617 7.19367 6.38617C6.85804 6.38617 6.65867 6.61804 6.57054 6.84117C6.53804 6.92054 6.52992 7.03304 6.52992 7.14492V9.39929H5.31429V6.73679C5.31429 6.24867 5.29867 5.84054 5.28242 5.48929H6.33804L6.39367 6.03242H6.41804C6.57804 5.77742 6.96992 5.40117 7.62554 5.40117C8.42492 5.40117 9.02429 5.93679 9.02429 7.08804V9.39992Z" fill="#414042"/>
</svg>
