<svg width="13" height="9" viewBox="0 0 13 9" fill="none" xmlns="http://www.w3.org/2000/svg">
<path d="M12.2071 7.50159C12.2071 7.75561 12.1307 7.9915 12.016 8.19109L8.18524 4.11758L11.9778 0.969472C12.1211 1.19628 12.2167 1.45033 12.2167 1.73158V7.50159H12.2071ZM6.13132 4.86152L11.4046 0.479585C11.1849 0.370716 10.9461 0.298126 10.6786 0.298126H1.57449C1.307 0.298126 1.06817 0.370716 0.84845 0.479585L6.13132 4.86152ZM7.6025 4.59842L6.3797 5.61455C6.30328 5.67805 6.2173 5.70525 6.13132 5.70525C6.04534 5.70525 5.94981 5.67805 5.88294 5.61455L4.66014 4.59842L0.781579 8.72636C1.01085 8.86245 1.28789 8.94409 1.58404 8.94409H10.6882C10.9843 8.94409 11.2518 8.86245 11.4906 8.72636L7.6025 4.59842ZM0.29437 0.969472C0.151073 1.19628 0.055542 1.45033 0.055542 1.73158V7.49251C0.055542 7.74653 0.131968 7.98242 0.246605 8.18201L4.0774 4.10853L0.29437 0.969472Z" fill="#414042"/>
</svg>
