<svg width="12" height="12" viewBox="0 0 12 12" fill="none" xmlns="http://www.w3.org/2000/svg">
<path d="M11.1061 8.88237C11.1291 9.0625 11.0716 9.20885 10.945 9.34395L9.39146 10.8525C9.32241 10.9313 9.23034 10.9988 9.11526 11.0439C9.00018 11.1002 8.89661 11.1339 8.78153 11.1452C8.77002 11.1452 8.74701 11.1452 8.71249 11.1565C8.67796 11.1565 8.62042 11.1677 8.56288 11.1677C8.41328 11.1677 8.17161 11.1452 7.83788 11.0889C7.50415 11.0439 7.10138 10.92 6.61805 10.7174C6.13471 10.526 5.59384 10.2333 4.98392 9.83929C4.374 9.44527 3.72956 8.91614 3.03908 8.24067C2.49821 7.71156 2.0379 7.20497 1.68115 6.73214C1.32441 6.24806 1.03671 5.809 0.818057 5.39246C0.599407 4.98718 0.438298 4.61569 0.323219 4.27796C0.219648 3.95148 0.139092 3.65877 0.104568 3.42236C0.0700444 3.18594 0.0470275 2.99456 0.0585355 2.85947C0.0700434 2.72438 0.0700436 2.64559 0.0700436 2.63433C0.0815515 2.52176 0.116075 2.42043 0.173615 2.30785C0.231155 2.19527 0.288694 2.10522 0.36925 2.03767L1.92282 0.51787C2.02639 0.41655 2.15298 0.360245 2.30258 0.360245C2.40615 0.360245 2.49821 0.394037 2.56726 0.450326C2.64782 0.506615 2.71686 0.574164 2.7629 0.664226L4.01726 2.99459C4.08631 3.11843 4.10932 3.2535 4.0748 3.39985C4.04027 3.5462 3.98274 3.67006 3.87916 3.77138L3.30377 4.33427C3.29226 4.34552 3.26924 4.37927 3.25774 4.41304C3.24623 4.44682 3.23472 4.48061 3.23472 4.50313C3.26924 4.66073 3.33829 4.8521 3.44186 5.05474C3.53393 5.23487 3.68353 5.46003 3.87916 5.73022C4.0748 5.98915 4.35099 6.2931 4.70773 6.64209C5.06448 6.99108 5.37519 7.26128 5.63987 7.46392C5.91606 7.6553 6.14622 7.80162 6.33035 7.89169C6.51447 7.98175 6.65257 8.03807 6.75614 8.06058L6.90574 8.09435C6.91725 8.09435 6.95178 8.08307 6.9863 8.07182C7.02082 8.06056 7.04384 8.04932 7.06686 8.02681L7.73431 7.36257C7.87241 7.23874 8.03352 7.18248 8.22915 7.18248C8.36725 7.18248 8.47082 7.20499 8.53987 7.25002H8.55137L10.8069 8.55592C10.9795 8.60096 11.0831 8.72477 11.1061 8.88237Z" fill="#414042"/>
</svg>
