<svg width="22" height="16" viewBox="0 0 22 16" fill="none" xmlns="http://www.w3.org/2000/svg">
<path d="M17.2181 8.86631H13.8554C13.756 8.86631 13.678 8.78238 13.678 8.67556C13.678 8.56874 13.756 8.4848 13.8554 8.4848H17.2181C19.2755 8.4848 20.9498 6.6841 20.9498 4.47135V1.75501H3.18541V4.47135C3.18541 5.05124 3.29892 5.60824 3.51885 6.13472C3.56141 6.23391 3.51883 6.34073 3.43369 6.38651C3.34147 6.43229 3.24216 6.38651 3.19959 6.29495C2.95838 5.72269 2.83069 5.11227 2.83069 4.47897V1.57187C2.83069 1.46505 2.90873 1.38112 3.00805 1.38112H21.1271C21.2264 1.38112 21.3045 1.46505 21.3045 1.57187V4.47897C21.2974 6.89773 19.467 8.86631 17.2181 8.86631Z" fill="#414042"/>
<path d="M10.2798 8.86611H6.91705C6.74678 8.86611 6.57651 8.8585 6.40625 8.83561C6.30693 8.82035 6.24308 8.72879 6.25017 8.62196C6.26436 8.51514 6.35659 8.44647 6.44881 8.4541C6.59779 8.47699 6.75389 8.4846 6.90997 8.4846H10.2727C10.372 8.4846 10.4501 8.56853 10.4501 8.67536C10.4501 8.78218 10.3791 8.86611 10.2798 8.86611Z" fill="#414042"/>
<path d="M20.7795 14.1236H4.88805C4.78873 14.1236 4.71069 14.0397 4.71069 13.9329C4.71069 13.826 4.78873 13.7421 4.88805 13.7421H20.6021V6.19585C20.6021 6.08903 20.6802 6.0051 20.7795 6.0051C20.8788 6.0051 20.9569 6.08903 20.9569 6.19585V13.9329C20.9569 14.0397 20.8788 14.1236 20.7795 14.1236Z" fill="#414042"/>
<path d="M13.3374 10.5679H10.7905C10.4074 10.5679 10.0952 10.2322 10.0952 9.82778V8.60695C10.0952 8.19492 10.4074 7.86682 10.7905 7.86682H13.3374C13.7205 7.86682 14.0326 8.20255 14.0326 8.60695V9.82778C14.0326 10.2322 13.7205 10.5679 13.3374 10.5679ZM10.7905 8.24072C10.606 8.24072 10.4499 8.40095 10.4499 8.59933V9.82014C10.4499 10.0185 10.5989 10.1788 10.7905 10.1788H13.3374C13.5218 10.1788 13.6779 10.0185 13.6779 9.82014V8.59933C13.6779 8.40095 13.5289 8.24072 13.3374 8.24072H10.7905Z" fill="#414042"/>
<path d="M13.5787 1.75495H10.5565C10.4572 1.75495 10.3792 1.67102 10.3792 1.5642V0.900354C10.3792 0.404393 10.7551 0 11.2163 0H12.926C13.3872 0 13.7632 0.404393 13.7632 0.900354V1.5642C13.7561 1.67102 13.671 1.75495 13.5787 1.75495ZM10.7339 1.37344H13.4014V0.900354C13.4014 0.618038 13.1885 0.381508 12.919 0.381508H11.2092C10.9467 0.381508 10.7268 0.610408 10.7268 0.900354V1.37344H10.7339Z" fill="#414042"/>
<path d="M4.88805 14.4212H1.85165C1.75233 14.4212 1.67429 14.3372 1.67429 14.2304V12.7731C0.638507 12.1245 0 10.9342 0 9.64469C0 7.64558 1.51111 6.02036 3.36984 6.02036C5.22857 6.02036 6.73968 7.64558 6.73968 9.64469C6.73968 10.9342 6.10119 12.1245 5.06541 12.7731V14.2304C5.06541 14.3372 4.98737 14.4212 4.88805 14.4212ZM2.02901 14.0396H4.71069V12.6586C4.71069 12.5899 4.74616 12.5212 4.80292 12.4907C5.77485 11.9185 6.38496 10.8274 6.38496 9.63705C6.38496 7.85159 5.02993 6.39423 3.36984 6.39423C1.70975 6.39423 0.35472 7.85159 0.35472 9.63705C0.35472 10.8274 0.957751 11.9185 1.93678 12.4907C1.99353 12.5212 2.02901 12.5899 2.02901 12.6586V14.0396Z" fill="#414042"/>
<path d="M3.36997 15.8935C2.7031 15.8935 2.16394 15.3136 2.16394 14.5964C2.16394 14.4895 2.24198 14.4056 2.3413 14.4056C2.44062 14.4056 2.51866 14.4895 2.51866 14.5964C2.51866 15.1 2.90174 15.512 3.36997 15.512C3.8382 15.512 4.22131 15.1 4.22131 14.5964C4.22131 14.4895 4.29935 14.4056 4.39867 14.4056C4.49799 14.4056 4.57603 14.4895 4.57603 14.5964C4.58313 15.306 4.03685 15.8935 3.36997 15.8935Z" fill="#414042"/>
<path d="M3.36986 13.5058C3.27054 13.5058 3.1925 13.4219 3.1925 13.3151V10.469C3.1925 10.3622 3.27054 10.2783 3.36986 10.2783C3.46919 10.2783 3.54722 10.3622 3.54722 10.469V13.3151C3.54722 13.4143 3.46919 13.5058 3.36986 13.5058Z" fill="#414042"/>
<path d="M3.63243 10.6593H3.11455C2.56828 10.6593 2.12134 10.1786 2.12134 9.59105C2.12134 9.48423 2.19938 9.4003 2.2987 9.4003C2.39802 9.4003 2.47606 9.48423 2.47606 9.59105C2.47606 9.96493 2.75983 10.2778 3.11455 10.2778H3.63243C3.98005 10.2778 4.27094 9.97256 4.27094 9.59105C4.27094 9.48423 4.34898 9.4003 4.4483 9.4003C4.54762 9.4003 4.62566 9.48423 4.62566 9.59105C4.61856 10.1786 4.17869 10.6593 3.63243 10.6593Z" fill="#414042"/>
</svg>
