<svg width="6" height="294" viewBox="0 0 6 294" fill="none" xmlns="http://www.w3.org/2000/svg">
<path d="M4 4H3V294H4V4Z" fill="#414042"/>
<path d="M5.93289 2.55079C5.93289 3.95982 4.82888 5.10163 3.46646 5.10163C2.10404 5.10163 1 3.95982 1 2.55079C1 1.14177 2.10404 0 3.46646 0C4.82888 0 5.93289 1.14177 5.93289 2.55079Z" fill="#414042"/>
<path d="M5.91946 132.453C5.91946 133.862 4.81546 135.004 3.45303 135.004C2.09061 135.004 0.986572 133.862 0.986572 132.453C0.986572 131.044 2.09061 129.902 3.45303 129.902C4.81546 129.902 5.91946 131.044 5.91946 132.453Z" fill="#414042"/>
</svg>
